<?xml version="1.0" standalone="no"?>
<!DOCTYPE svg PUBLIC "-//W3C//DTD SVG 20010904//EN"
 "http://www.w3.org/TR/2001/REC-SVG-20010904/DTD/svg10.dtd">
<svg version="1.0" xmlns="http://www.w3.org/2000/svg"
 width="900.000000pt" height="900.000000pt" viewBox="0 0 900.000000 900.000000"
 preserveAspectRatio="xMidYMid meet">

<g transform="translate(0.000000,900.000000) scale(0.100000,-0.100000)"
fill="#000000" stroke="none">
<path d="M4422 7543 c21 -5 24 -25 20 -146 -3 -90 -5 -99 -25 -107 -17 -7 -8
-9 33 -9 30 1 49 3 43 6 -9 3 -13 26 -13 64 l0 59 49 0 c74 0 76 -2 73 -65 -2
-30 -9 -55 -15 -55 -29 0 9 -14 46 -17 33 -3 38 -1 25 7 -15 9 -18 26 -18 93
0 110 9 157 29 159 9 0 -4 4 -29 7 -49 7 -62 4 -42 -8 9 -5 12 -25 10 -57 l-3
-49 -62 -3 -63 -3 0 48 c0 51 6 67 30 76 8 3 -12 5 -45 5 -33 0 -52 -2 -43 -5z"/>
<path d="M4216 7529 c-3 -8 -22 -63 -42 -124 -20 -60 -43 -121 -51 -134 -14
-22 -14 -24 2 -18 9 4 26 7 38 7 19 1 20 2 5 10 -25 15 -3 80 27 80 13 0 37 3
54 6 28 6 32 3 45 -27 10 -24 11 -38 4 -46 -8 -10 -1 -13 29 -13 49 0 58 8 34
29 -11 9 -45 66 -77 126 -67 129 -62 122 -68 104z m28 -105 c14 -26 26 -48 26
-49 0 -2 -20 -5 -45 -7 -31 -2 -44 0 -41 8 3 7 10 30 17 53 7 23 13 41 15 41
1 0 14 -21 28 -46z"/>
<path d="M4734 7528 c18 -14 19 -24 12 -124 -5 -79 -11 -112 -22 -120 -12 -10
-11 -12 8 -18 13 -3 37 -5 53 -5 17 1 22 3 13 6 -20 5 -22 38 -11 167 5 66 9
79 27 86 18 7 15 9 -14 10 -19 0 -46 3 -60 6 -24 6 -24 6 -6 -8z"/>
<path d="M4893 7513 c22 -6 21 -33 -2 -147 -11 -51 -26 -95 -35 -101 -12 -9 4
-15 80 -29 92 -18 95 -18 109 0 21 28 18 40 -5 19 -16 -14 -29 -16 -67 -11
-26 3 -51 10 -55 14 -9 9 -1 81 12 101 12 20 80 3 90 -23 7 -19 8 -19 15 9 4
17 9 36 11 44 4 11 0 11 -14 -2 -11 -10 -25 -15 -33 -13 -8 2 -26 7 -40 10
-26 6 -26 6 -16 57 l10 51 36 -7 c59 -10 68 -14 79 -38 10 -22 11 -21 11 5 1
30 7 28 -117 53 -68 14 -111 19 -69 8z"/>
<path d="M3870 7473 c-36 -8 -67 -17 -69 -19 -2 -2 3 -9 11 -17 7 -8 24 -60
38 -115 20 -88 21 -103 9 -118 -12 -15 -12 -16 6 -11 11 3 43 11 70 18 28 7
63 18 78 26 54 27 61 99 12 121 -21 10 -24 15 -15 31 14 28 13 46 -7 69 -25
28 -58 32 -133 15z m90 -23 c22 -22 24 -33 10 -60 -8 -16 -58 -40 -81 -40 -9
0 -29 64 -29 92 0 31 71 37 100 8z m40 -120 c11 -11 20 -29 20 -39 0 -26 -46
-61 -81 -61 -29 0 -33 6 -44 72 -6 33 -5 37 17 41 49 9 69 6 88 -13z"/>
<path d="M5148 7463 c7 -2 17 -13 22 -24 15 -28 -45 -218 -71 -228 -16 -5 -12
-9 20 -17 36 -10 38 -9 28 7 -8 13 -5 36 12 95 13 44 26 82 30 86 3 4 28 -49
55 -117 27 -69 52 -125 55 -125 3 0 19 44 35 98 40 130 46 142 70 143 12 0 1
7 -24 15 -56 17 -58 17 -36 1 18 -13 17 -17 -9 -102 l-27 -88 -17 39 c-9 21
-32 76 -50 121 -28 70 -37 83 -63 92 -31 11 -55 14 -30 4z"/>
<path d="M3576 7390 c-35 -16 -37 -19 -16 -22 18 -2 30 -19 56 -80 18 -43 31
-78 28 -78 -2 0 -54 25 -114 55 -107 53 -111 55 -142 41 l-33 -14 28 -1 c26
-1 32 -10 69 -88 22 -49 41 -100 42 -115 1 -32 2 -32 35 -14 21 12 22 13 5 18
-19 5 -91 154 -80 165 3 3 57 -22 120 -56 64 -34 116 -57 116 -51 0 6 -21 59
-46 117 -38 87 -44 110 -35 125 6 10 10 18 9 17 -2 0 -21 -9 -42 -19z"/>
<path d="M5464 7315 c-30 -30 -27 -48 23 -122 43 -65 43 -106 -1 -111 -40 -5
-76 31 -77 77 l0 36 -19 -40 c-21 -46 -24 -59 -10 -50 5 3 27 -6 47 -20 74
-50 145 -16 133 64 -1 8 -20 41 -43 73 -45 64 -44 90 5 96 32 4 72 -42 65 -75
-2 -13 -2 -23 0 -23 8 0 34 72 29 78 -3 3 -6 2 -6 -1 0 -4 -16 5 -36 18 -47
32 -78 32 -110 0z"/>
<path d="M3166 7302 c-3 -5 -1 -22 4 -38 4 -16 9 -27 9 -24 1 3 5 20 10 38 8
25 7 32 -4 32 -8 0 -16 -4 -19 -8z"/>
<path d="M5698 7253 c21 -8 13 -34 -40 -129 -34 -61 -59 -94 -72 -96 -12 -2
10 -19 67 -51 l87 -49 27 22 28 22 -36 -7 c-27 -5 -47 -1 -78 14 -22 12 -41
24 -41 27 0 20 55 102 64 97 49 -28 66 -46 61 -64 -11 -33 4 -20 26 23 16 31
18 39 6 30 -13 -11 -22 -11 -52 3 -19 10 -37 21 -40 24 -5 9 43 91 54 91 4 0
27 -14 50 -30 34 -25 41 -35 36 -53 -4 -16 -2 -15 10 6 9 16 15 30 13 31 -13
11 -172 96 -177 95 -3 0 0 -3 7 -6z"/>
<path d="M3211 7222 c-50 -25 -73 -61 -73 -115 0 -83 60 -147 137 -147 77 0
125 51 125 132 0 58 -30 104 -83 128 -52 24 -63 24 -106 2z m97 -35 c33 -31
62 -90 62 -128 0 -69 -77 -103 -133 -59 -31 24 -67 96 -67 134 0 79 78 109
138 53z"/>
<path d="M3005 7095 c-29 -18 -35 -25 -20 -25 14 0 35 -24 72 -83 65 -103 69
-113 52 -134 -13 -17 -12 -17 11 -2 14 9 36 22 49 28 l23 13 -23 12 c-30 15
-131 175 -125 199 2 9 3 17 3 17 -1 0 -20 -12 -42 -25z"/>
<path d="M6037 7040 c7 -27 -120 -190 -148 -190 -16 0 -9 -9 28 -39 95 -75
142 -87 201 -51 42 26 72 76 72 122 0 43 -37 91 -113 145 -38 28 -44 30 -40
13z m84 -69 c92 -93 -52 -261 -155 -180 -14 11 -26 25 -26 30 0 14 131 179
142 179 5 0 23 -13 39 -29z"/>
<path d="M2900 7017 c0 -10 -8 -17 -19 -17 -25 0 -68 -35 -86 -70 -35 -68 -2
-155 73 -191 37 -19 49 -20 81 -11 51 16 91 60 96 108 l5 39 -11 -35 c-22 -73
-81 -105 -138 -75 -43 22 -91 90 -91 130 0 63 59 106 116 85 38 -15 39 -8 4
25 -24 23 -30 25 -30 12z"/>
<path d="M6287 6841 c7 -28 -142 -184 -169 -176 -10 4 -18 5 -18 2 0 -2 33
-34 74 -70 70 -63 76 -66 100 -55 36 16 33 25 -6 20 -27 -3 -39 3 -66 31 -37
39 -36 51 11 96 l26 23 31 -22 c27 -19 31 -27 26 -51 -3 -16 -4 -29 -2 -29 2
0 16 16 30 35 16 21 21 32 12 29 -16 -6 -75 34 -75 52 -1 5 14 25 33 43 l34
33 37 -33 c32 -28 36 -37 31 -63 l-6 -31 19 25 c23 29 22 31 -71 111 -39 34
-55 44 -51 30z"/>
<path d="M4646 6778 c-37 -169 -104 -438 -122 -493 -13 -38 -24 -82 -24 -97 0
-15 -22 -115 -50 -222 -27 -107 -50 -204 -50 -215 0 -12 -9 -26 -19 -33 -15
-9 -17 -16 -10 -31 7 -12 7 -28 0 -49 -15 -42 -14 -58 4 -58 16 0 42 80 75
229 11 52 24 99 29 104 6 6 34 1 73 -11 34 -12 176 -53 313 -92 138 -39 320
-93 405 -120 194 -62 220 -67 220 -48 0 20 -20 27 -495 168 -563 167 -505 145
-499 183 3 18 46 196 94 397 49 201 90 374 92 385 5 29 -30 32 -36 3z"/>
<path d="M2590 6752 c0 -5 20 -63 45 -130 24 -67 42 -129 39 -137 -9 -22 -1
-19 29 13 27 28 27 29 6 28 -16 -1 -25 7 -32 27 -8 25 -5 33 24 63 36 37 45
40 84 22 19 -9 24 -16 19 -32 -5 -17 1 -14 30 14 l36 34 -42 11 c-24 7 -84 30
-134 53 -97 45 -104 47 -104 34z m85 -64 c25 -12 45 -25 45 -28 0 -13 -49 -52
-58 -46 -10 6 -44 96 -37 96 3 0 25 -10 50 -22z"/>
<path d="M2419 6578 c-19 -24 -26 -37 -16 -29 20 16 8 23 125 -79 54 -48 71
-68 66 -82 -8 -27 -1 -22 34 21 25 31 27 38 12 34 -23 -6 -186 136 -184 161 2
23 0 21 -37 -26z"/>
<path d="M6546 6580 c4 -21 -8 -36 -82 -99 -78 -67 -88 -73 -107 -62 -12 8 -5
-5 18 -33 20 -25 38 -46 40 -46 1 0 0 11 -2 23 -4 19 4 31 35 55 l39 31 22
-29 c26 -36 64 -47 98 -29 56 30 48 86 -25 169 -35 39 -40 41 -36 20z m53 -64
c19 -23 9 -67 -21 -89 -25 -19 -28 -19 -52 -3 -35 22 -33 33 12 72 43 38 45
39 61 20z"/>
<path d="M2350 6493 c0 -10 -14 -26 -30 -35 -30 -17 -60 -70 -60 -105 0 -33
42 -103 74 -123 49 -29 116 -27 155 6 37 31 57 88 43 124 -8 22 -9 19 -8 -18
1 -38 -4 -48 -32 -73 -40 -36 -76 -37 -129 -3 -75 49 -95 122 -47 170 20 21
33 25 64 22 43 -4 43 1 0 32 -28 20 -30 20 -30 3z"/>
<path d="M6640 6305 c-108 -27 -150 -32 -169 -21 -7 5 -2 -8 11 -28 19 -29 24
-32 26 -16 2 13 14 21 38 26 19 3 36 5 37 3 2 -2 15 -21 30 -42 28 -37 28 -37
10 -68 -12 -20 -24 -29 -35 -26 -20 6 -14 -9 21 -53 l21 -25 0 23 c0 12 22 57
48 100 100 160 96 152 75 151 -10 0 -61 -11 -113 -24z m60 -11 c0 -11 -43 -84
-50 -84 -9 0 -53 61 -48 66 4 3 70 20 91 23 4 1 7 -2 7 -5z"/>
<path d="M3314 6249 c-11 -18 7 -27 106 -53 52 -14 154 -44 225 -66 72 -23
150 -44 175 -47 41 -6 44 -5 32 10 -14 17 -233 90 -416 138 -131 34 -113 31
-122 18z"/>
<path d="M2152 6203 c-42 -20 -62 -59 -62 -119 0 -40 5 -51 38 -84 61 -61 133
-66 193 -12 44 39 51 111 17 161 -44 65 -120 87 -186 54z m82 -27 c18 -7 49
-28 69 -46 43 -37 49 -82 18 -121 -51 -63 -221 19 -221 106 0 24 55 75 80 75
11 0 35 -6 54 -14z"/>
<path d="M6810 6190 c-12 -8 -11 -10 7 -10 24 0 59 -42 49 -59 -10 -15 -182
-111 -200 -111 -9 0 -16 5 -16 12 0 6 -3 9 -6 6 -3 -3 9 -28 26 -54 17 -27 28
-39 25 -27 -5 19 6 29 97 82 l103 61 15 -31 c11 -24 12 -34 2 -50 -7 -10 -10
-19 -6 -19 12 0 44 21 44 30 0 17 -103 180 -114 180 -6 0 -18 -5 -26 -10z"/>
<path d="M6970 5962 c0 -16 -22 -32 -97 -72 -54 -28 -106 -49 -115 -46 -23 5
-23 6 7 -45 18 -32 24 -38 23 -21 -3 20 11 31 101 78 85 44 107 52 119 42 10
-8 7 3 -8 32 -28 56 -30 58 -30 32z"/>
<path d="M1995 5952 c-49 -91 -48 -88 -34 -118 8 -16 26 -33 41 -38 22 -8 37
-3 95 32 38 23 74 42 81 42 17 0 41 -40 35 -59 -12 -33 -47 -61 -77 -62 l-31
-1 34 -14 c18 -8 34 -14 35 -12 1 2 14 21 29 44 35 52 35 96 1 123 -37 29 -50
27 -119 -19 -65 -43 -86 -48 -105 -25 -31 37 27 100 81 89 18 -4 16 0 -11 15
-43 25 -43 25 -55 3z"/>
<path d="M7020 5960 c0 -5 8 -10 18 -10 9 0 27 -3 40 -6 18 -5 21 -3 16 10 -7
18 -74 23 -74 6z"/>
<path d="M3395 5899 c-80 -57 -191 -262 -211 -389 -5 -32 -4 -40 9 -40 26 0
170 163 204 231 46 94 67 219 36 219 -5 0 -22 -10 -38 -21z"/>
<path d="M5827 5818 c-8 -62 1 -173 18 -214 18 -44 110 -134 137 -134 18 0 19
4 14 38 -22 124 -40 170 -98 260 -33 50 -62 92 -63 92 -1 0 -5 -19 -8 -42z"/>
<path d="M7035 5843 c13 -26 -17 -52 -101 -87 -89 -37 -124 -44 -124 -24 0 6
-3 8 -6 5 -4 -4 -1 -20 6 -36 12 -29 13 -30 29 -12 13 15 171 86 171 77 0 -1
-29 -56 -65 -121 -35 -66 -63 -121 -61 -122 1 -2 54 18 117 43 87 35 117 44
130 36 16 -10 16 -8 1 30 -14 36 -17 39 -22 19 -4 -16 -25 -31 -82 -56 -43
-18 -78 -30 -78 -26 0 5 25 54 55 109 59 109 64 127 39 158 -8 10 -13 13 -9 7z"/>
<path d="M4245 5738 c-41 -22 -135 -128 -135 -152 0 -2 18 -4 40 -4 43 0 62
14 117 85 46 58 32 101 -22 71z"/>
<path d="M3041 5716 c-26 -28 -46 -98 -56 -193 -11 -116 23 -493 45 -493 5 0
30 28 57 63 27 34 122 134 210 222 123 122 162 168 168 193 4 19 3 38 -3 44
-26 26 -155 -43 -257 -136 -27 -25 -53 -46 -56 -46 -3 0 -9 48 -12 108 -7 113
-28 202 -57 239 l-17 22 -22 -23z"/>
<path d="M6118 5713 c-35 -42 -57 -158 -58 -306 l0 -77 -90 89 c-88 88 -130
116 -138 92 -2 -6 -19 -11 -38 -11 -44 0 -43 -12 4 -86 44 -68 113 -141 225
-239 43 -38 85 -81 93 -97 8 -15 18 -28 23 -28 4 0 15 100 25 223 10 122 21
237 26 254 12 46 -27 203 -50 203 -4 0 -14 -8 -22 -17z"/>
<path d="M2136 5671 c-4 -5 -70 -12 -148 -16 l-141 -8 109 -106 c60 -58 112
-101 115 -96 4 6 10 20 14 33 6 22 5 22 -14 10 -18 -11 -24 -10 -43 9 -21 21
-21 24 -7 70 14 46 16 48 56 51 32 2 42 -1 45 -13 1 -9 10 4 19 29 9 25 13 46
8 46 -4 0 -10 -4 -13 -9z m-116 -60 c0 -9 -19 -59 -27 -70 -1 -2 -20 12 -42
32 -22 19 -37 37 -35 39 9 10 104 8 104 -1z"/>
<path d="M3935 5610 c-10 -16 -7 -18 63 -26 43 -4 62 -3 62 5 0 7 -19 11 -48
11 -26 0 -53 5 -59 11 -8 8 -13 8 -18 -1z"/>
<path d="M3874 5529 c-4 -6 -12 -113 -20 -238 l-12 -226 -48 -135 c-46 -131
-47 -138 -48 -255 -1 -101 2 -126 19 -159 23 -45 49 -66 64 -51 7 7 2 33 -14
78 -34 92 -36 263 -5 335 37 86 51 182 59 389 7 161 11 207 25 227 9 14 16 30
16 36 0 14 -27 13 -36 -1z"/>
<path d="M4223 5513 c-23 -4 -30 -17 -14 -27 4 -3 11 -21 14 -40 9 -53 72
-215 122 -312 67 -129 167 -274 238 -344 76 -75 200 -154 286 -180 61 -19 181
-28 181 -12 0 4 3 17 6 30 6 20 3 22 -40 22 -25 0 -55 -5 -65 -12 -25 -15 -55
7 -47 34 4 17 0 18 -24 13 -19 -4 -38 0 -61 14 -19 12 -47 21 -63 21 -26 0
-28 3 -24 30 5 33 -3 38 -22 15 -18 -22 -27 -18 -34 15 -3 19 -15 34 -30 41
-23 11 -36 44 -36 93 0 12 -8 26 -19 31 -61 32 -129 97 -145 137 -10 24 -29
58 -43 76 -18 24 -28 56 -38 120 -7 48 -9 88 -4 90 5 2 19 12 31 23 23 20 23
20 2 14 -16 -4 -23 0 -27 16 -5 19 -9 20 -21 10 -22 -18 -35 -6 -42 40 -4 22
-12 39 -19 39 -8 0 -19 2 -27 4 -7 2 -23 1 -35 -1z"/>
<path d="M4570 5380 c0 -5 5 -10 10 -10 6 0 10 5 10 10 0 6 -4 10 -10 10 -5 0
-10 -4 -10 -10z"/>
<path d="M4510 5365 c0 -19 24 -30 41 -19 9 5 7 11 -6 21 -24 17 -35 17 -35
-2z"/>
<path d="M2887 5267 c-18 -47 -17 -154 2 -302 24 -178 75 -443 89 -457 6 -6
20 18 37 62 15 39 56 127 92 196 90 176 155 389 124 408 -20 13 -80 -57 -127
-147 -76 -148 -104 -179 -104 -114 0 53 -46 258 -70 315 -23 53 -34 63 -43 39z"/>
<path d="M6271 5248 c-22 -57 -61 -212 -77 -305 -9 -57 -21 -103 -25 -103 -4
0 -17 30 -30 67 -44 134 -130 263 -175 263 -18 0 -18 -45 0 -98 8 -22 21 -76
29 -119 12 -64 25 -95 63 -154 26 -41 58 -99 72 -129 80 -181 95 -197 106
-106 3 29 13 69 21 89 8 20 15 54 15 75 0 21 9 78 19 127 45 206 45 415 0 415
-5 0 -13 -10 -18 -22z"/>
<path d="M4585 5209 c-9 -27 -3 -32 20 -15 10 7 15 18 11 24 -11 18 -24 14
-31 -9z"/>
<path d="M4643 5112 c-36 -19 -44 -33 -14 -25 13 3 24 -5 39 -31 24 -40 33
-43 56 -20 21 20 20 27 -3 48 -15 14 -24 15 -40 6 -25 -13 -27 -3 -4 22 20 22
9 22 -34 0z"/>
<path d="M4762 4967 c-8 -10 -2 -21 24 -45 39 -36 53 -33 79 17 12 25 12 26
-21 28 -19 1 -34 -3 -34 -8 0 -5 -10 -9 -21 -9 -18 0 -19 2 -9 15 7 8 8 15 2
15 -5 0 -14 -6 -20 -13z"/>
<path d="M4700 4925 c-24 -14 -24 -14 -3 -15 12 0 25 5 28 11 11 17 2 18 -25
4z"/>
<path d="M4891 4845 c-23 -31 -52 -57 -66 -61 -14 -3 -25 -10 -25 -16 0 -15
43 3 77 33 31 27 34 28 67 14 34 -14 35 -14 56 13 19 24 20 27 5 30 -9 2 -27
-4 -41 -13 -29 -19 -48 -10 -21 9 9 7 17 21 17 30 0 31 -28 16 -69 -39z"/>
<path d="M5040 4740 c-17 -22 -27 -40 -22 -40 5 0 17 11 26 25 11 17 26 25 46
25 32 0 40 14 14 24 -26 10 -31 7 -64 -34z"/>
<path d="M3122 4703 c-44 -57 -57 -87 -91 -217 -17 -65 -31 -121 -31 -122 0
-2 -4 -4 -9 -4 -5 0 -28 38 -52 85 -64 124 -108 185 -156 212 l-43 25 0 -36
c0 -74 73 -247 199 -467 33 -59 63 -119 67 -135 7 -29 20 -44 40 -44 7 0 13
33 17 83 4 45 27 163 52 262 25 99 51 221 57 271 17 130 3 154 -50 87z"/>
<path d="M6014 4694 c-3 -26 -4 -72 -1 -103 7 -65 68 -310 91 -365 10 -24 16
-67 16 -113 0 -41 5 -83 11 -94 10 -19 12 -20 29 -4 10 9 33 53 51 97 18 45
48 104 67 132 37 55 88 146 135 240 21 43 31 79 35 129 5 66 4 69 -14 59 -22
-12 -90 -83 -145 -152 -40 -49 -72 -109 -83 -153 -11 -45 -23 -23 -28 50 -4
56 -15 88 -58 178 -51 107 -75 145 -91 145 -4 0 -11 -21 -15 -46z"/>
<path d="M5261 4685 c-18 -8 -45 -15 -60 -15 -26 0 -101 -43 -101 -58 0 -4 28
-4 63 0 34 4 112 10 172 13 133 7 175 13 175 24 0 14 -30 23 -105 31 -38 5
-79 11 -90 14 -11 3 -35 -1 -54 -9z"/>
<path d="M3902 4625 c-62 -30 -72 -38 -72 -60 0 -35 50 -85 84 -85 37 0 129
34 167 61 63 44 267 36 427 -18 87 -29 183 -75 357 -172 l120 -66 110 1 c211
3 492 89 547 168 24 34 -23 116 -66 116 -12 0 -165 -20 -339 -45 -175 -25
-333 -45 -351 -45 -72 0 -211 32 -392 91 -225 72 -305 89 -428 89 -84 0 -98
-3 -164 -35z"/>
<path d="M3776 4383 c15 -87 51 -123 120 -123 13 0 24 -4 24 -9 0 -14 -54 -23
-94 -15 l-36 6 0 -60 c0 -131 18 -148 87 -83 64 59 131 66 242 25 39 -15 71
-30 71 -34 0 -5 12 -23 28 -41 16 -19 34 -59 43 -98 l17 -66 1 44 c1 33 7 49
26 67 24 22 26 28 19 86 -4 35 -11 66 -16 69 -4 3 -3 19 3 36 14 41 45 51 178
59 93 5 112 4 159 -15 29 -11 68 -21 87 -21 42 0 68 -30 92 -106 16 -52 18
-54 53 -54 28 0 45 8 72 34 53 51 101 63 182 42 36 -9 85 -16 109 -16 27 0 49
-6 57 -15 17 -21 37 -19 45 4 4 13 32 28 86 47 44 15 84 35 88 43 5 9 11 38
13 64 6 53 7 53 -71 21 -44 -18 -289 -73 -362 -81 -78 -8 -176 16 -339 82
-228 94 -395 125 -672 125 -87 0 -149 4 -153 10 -3 6 -42 10 -86 10 l-80 0 7
-37z"/>
<path d="M3130 4243 c-19 -48 -22 -77 -21 -163 1 -104 -13 -200 -29 -200 -8 0
-34 30 -143 169 -31 40 -64 69 -97 86 -67 34 -71 33 -64 -17 12 -72 41 -145
79 -195 62 -82 267 -303 329 -355 51 -43 61 -47 69 -33 5 9 6 38 3 63 -3 26
-10 146 -15 267 -12 266 -25 372 -49 404 -29 40 -39 35 -62 -26z"/>
<path d="M5996 4258 c-29 -69 -39 -185 -33 -371 4 -113 1 -217 -6 -274 -11
-92 -5 -125 17 -89 27 45 67 88 117 128 138 109 250 261 299 408 43 126 20
119 -153 -51 -73 -71 -136 -127 -142 -126 -6 2 -12 69 -16 158 -4 128 -9 162
-27 202 -12 26 -26 47 -32 47 -6 0 -17 -15 -24 -32z"/>
<path d="M5361 4044 c-1 -46 22 -130 44 -158 24 -31 27 -13 5 29 -11 22 -20
53 -21 70 0 16 -7 46 -14 65 l-13 35 -1 -41z"/>
<path d="M3839 4014 c-113 -84 -122 -268 -16 -348 52 -40 157 -72 157 -48 0 5
-18 14 -39 20 -44 14 -105 75 -127 128 -29 68 -14 142 46 227 22 32 36 57 32
56 -4 0 -28 -16 -53 -35z"/>
<path d="M3993 4034 c-10 -26 14 -61 59 -85 32 -18 49 -37 68 -75 23 -47 27
-50 48 -41 26 12 27 28 7 89 -19 54 -54 89 -113 112 -53 20 -61 20 -69 0z"/>
<path d="M4830 4021 c0 -20 32 -37 50 -26 17 10 11 21 -15 33 -34 16 -35 15
-35 -7z"/>
<path d="M5030 4020 c0 -12 5 -17 14 -14 7 3 40 -2 72 -10 63 -16 70 -15 60 9
-8 21 -48 35 -102 35 -37 0 -44 -3 -44 -20z"/>
<path d="M4934 4016 c-10 -8 -35 -45 -54 -82 -45 -87 -45 -138 -4 -220 37 -75
86 -105 182 -111 l67 -4 -70 34 c-82 40 -118 76 -140 136 -26 74 -13 186 27
228 25 27 20 38 -8 19z"/>
<path d="M3915 3918 c-54 -29 -62 -98 -17 -140 71 -69 162 -33 162 63 0 65
-85 110 -145 77z m91 -44 c13 -11 15 -17 7 -20 -7 -3 -13 -19 -13 -35 0 -27
-2 -29 -40 -29 -34 0 -40 4 -46 26 -5 18 0 32 17 50 26 28 47 30 75 8z"/>
<path d="M5177 3875 c35 -70 61 -73 54 -5 -2 19 -48 60 -66 60 -11 0 -8 -13
12 -55z"/>
<path d="M5023 3898 c-41 -11 -63 -42 -63 -91 0 -53 35 -87 90 -87 55 0 76 13
90 55 12 36 0 97 -21 111 -24 14 -67 20 -96 12z m87 -88 c0 -20 -37 -55 -67
-65 -19 -5 -25 -1 -33 20 -18 48 -12 70 23 86 30 14 34 14 55 -5 12 -11 22
-27 22 -36z"/>
<path d="M3285 3766 c-8 -48 8 -214 29 -314 7 -34 11 -64 8 -66 -5 -6 -70 34
-137 85 -90 68 -255 132 -255 99 0 -17 76 -138 109 -174 48 -52 145 -114 244
-155 54 -22 116 -53 138 -68 21 -16 63 -45 93 -67 57 -40 93 -42 59 -2 -64 73
-89 141 -126 352 -8 45 -35 132 -61 194 -69 171 -90 194 -101 116z"/>
<path d="M5867 3771 c-55 -66 -117 -244 -147 -426 -18 -108 -24 -126 -61 -179
-22 -32 -39 -64 -37 -71 2 -7 75 28 183 89 129 72 212 126 287 189 99 81 173
167 165 191 -13 39 -127 -7 -291 -115 -91 -61 -125 -74 -107 -41 33 62 63 324
42 376 -6 17 -10 16 -34 -13z"/>
<path d="M5241 3748 c-11 -18 -28 -43 -37 -56 -20 -27 -13 -38 14 -23 37 20
81 111 53 111 -5 0 -18 -15 -30 -32z"/>
<path d="M4102 3700 c-18 -17 -39 -30 -47 -30 -8 0 -15 -9 -15 -20 0 -11 5
-20 12 -20 20 0 97 65 98 83 0 24 -10 21 -48 -13z"/>
<path d="M3984 3513 c-62 -284 -104 -466 -109 -472 -7 -7 -24 13 -100 119 -80
111 -230 239 -253 215 -10 -10 73 -216 90 -223 9 -4 78 -125 78 -135 0 -13
-73 -7 -154 12 -95 23 -277 43 -289 32 -19 -18 49 -72 156 -125 135 -66 213
-86 336 -86 l93 0 -7 -42 c-13 -77 -18 -83 -81 -97 -79 -18 -124 -41 -124 -63
0 -31 57 -84 105 -98 25 -7 45 -14 45 -15 0 -2 -16 -48 -35 -104 -40 -116 -40
-111 -20 -111 21 0 39 35 65 126 l23 82 146 4 c145 5 147 5 271 53 119 45 250
71 250 49 0 -5 -24 -22 -54 -37 -65 -34 -227 -179 -295 -265 -55 -68 -76 -123
-60 -153 8 -16 22 -19 77 -19 83 0 97 9 147 94 50 86 220 297 252 315 61 32
149 -34 245 -184 28 -44 66 -102 84 -130 17 -27 41 -58 52 -68 48 -43 162 -39
162 6 -1 88 -169 289 -327 390 -87 56 -95 67 -49 67 67 0 137 -22 241 -76 122
-62 183 -73 310 -54 108 16 178 44 226 89 63 60 56 74 -58 110 -137 43 -221
59 -385 72 -187 15 -244 9 -343 -35 -92 -41 -112 -43 -164 -17 -62 32 -162 45
-296 37 -129 -7 -363 -34 -377 -43 -10 -5 -1 57 14 96 8 22 11 23 81 16 82 -9
133 -8 148 1 18 11 -12 34 -58 45 -24 7 -64 27 -89 47 -46 34 -46 35 -40 81 3
25 29 143 56 261 47 204 61 310 41 310 -5 0 -17 -35 -27 -77z"/>
<path d="M5635 3368 c-130 -93 -161 -126 -294 -312 -56 -79 -127 -137 -197
-161 -21 -7 -39 -19 -39 -27 0 -18 479 -18 544 1 73 21 268 119 296 148 46 51
59 49 -230 24 -55 -5 -117 -16 -137 -25 -39 -17 -78 -21 -78 -9 0 4 27 52 60
107 32 56 68 121 79 146 18 42 39 130 30 130 -2 0 -17 -10 -34 -22z"/>
<path d="M2819 2386 c10 -12 0 -29 -50 -88 -76 -90 -98 -110 -113 -101 -6 3 5
-10 23 -30 19 -21 36 -37 37 -37 1 0 0 9 -3 20 -7 25 62 106 74 87 4 -7 6 -46
5 -87 -4 -70 -2 -77 22 -99 14 -14 26 -19 26 -13 0 6 -4 14 -10 17 -11 7 -13
61 -4 115 6 34 8 36 40 32 43 -5 74 20 74 60 0 21 -14 41 -57 83 -32 30 -62
55 -66 55 -5 0 -4 -6 2 -14z m63 -63 c20 -18 24 -63 6 -81 -16 -16 -60 -15
-83 2 -18 13 -17 15 14 55 18 22 35 41 39 41 3 0 14 -7 24 -17z"/>
<path d="M6099 2342 c-24 -21 -69 -58 -99 -82 -30 -23 -45 -40 -34 -36 18 5
30 -4 71 -57 57 -72 73 -99 73 -122 0 -24 -55 -75 -81 -75 -24 0 -85 59 -133
128 -25 36 -27 44 -15 59 8 9 -7 2 -33 -17 -53 -37 -56 -40 -30 -33 13 3 35
-17 81 -72 85 -103 116 -113 182 -58 63 53 59 87 -21 189 -56 71 -60 88 -28
105 21 11 29 6 100 -72 52 -55 77 -90 74 -101 -6 -27 6 -22 43 16 25 26 29 34
15 30 -24 -6 -102 70 -84 81 7 4 45 2 85 -5 67 -11 75 -11 99 6 30 22 35 39 6
24 -14 -8 -38 -7 -84 0 l-63 12 4 42 c5 37 2 46 -18 60 -36 25 -62 20 -110
-22z m89 -20 c17 -22 15 -46 -7 -73 l-20 -24 -35 34 c-42 41 -44 54 -14 75 25
18 56 13 76 -12z"/>
<path d="M3021 2213 c10 -17 4 -31 -52 -111 -38 -53 -72 -92 -83 -94 -15 -2 1
-17 57 -56 79 -55 101 -59 129 -25 12 15 11 15 -9 5 -32 -18 -46 -15 -92 18
l-42 31 31 44 c17 25 34 45 38 45 10 0 55 -31 64 -44 4 -6 6 -17 3 -23 -8 -22
1 -15 30 23 25 32 25 35 6 24 -18 -9 -28 -7 -56 10 -19 12 -35 25 -35 28 0 12
50 82 58 82 4 0 24 -11 45 -25 27 -19 37 -33 37 -53 l0 -26 16 22 c9 13 14 25
13 26 -8 7 -145 103 -157 110 -11 7 -11 4 -1 -11z"/>
<path d="M5770 2094 c0 -7 -12 -15 -26 -18 -36 -9 -74 -50 -74 -81 0 -47 31
-65 113 -65 59 0 77 -4 90 -18 22 -25 21 -34 -6 -60 -27 -26 -64 -28 -95 -6
-12 8 -22 12 -22 7 0 -13 49 -69 50 -57 0 6 18 16 40 23 66 20 93 88 50 131
-17 17 -33 20 -100 20 -69 0 -81 3 -90 20 -25 47 39 87 92 57 15 -9 28 -13 28
-9 0 12 -49 67 -50 56z"/>
<path d="M3182 2030 c-102 -62 -93 -192 18 -247 66 -34 81 -31 113 28 22 38
33 49 45 44 24 -9 4 7 -41 35 -35 21 -38 21 -27 3 10 -16 9 -26 -9 -60 -26
-52 -35 -58 -71 -43 -79 33 -79 147 -1 213 64 54 151 20 151 -60 l1 -38 19 35
c23 42 24 51 6 44 -8 -3 -19 3 -25 14 -14 26 -71 52 -113 52 -18 0 -48 -9 -66
-20z"/>
<path d="M3449 1946 c10 -12 2 -36 -38 -121 -44 -92 -54 -107 -71 -102 -32 8
-23 -1 22 -23 50 -24 47 -24 41 -1 -5 19 81 200 100 213 6 4 15 4 19 2 4 -3 8
-3 8 0 0 5 -79 46 -88 46 -2 0 1 -6 7 -14z"/>
<path d="M5450 1782 c0 -94 -4 -142 -12 -150 -16 -16 -8 -15 33 3 19 8 26 14
17 15 -14 0 -18 9 -18 40 0 39 2 42 47 61 l46 20 24 -23 c14 -13 22 -30 20
-40 -6 -22 -8 -22 44 2 25 11 36 20 25 20 -10 0 -62 43 -115 95 -54 52 -100
95 -104 95 -4 0 -7 -62 -7 -138z m65 38 l39 -40 -37 -15 c-20 -8 -39 -15 -42
-15 -3 0 -5 25 -5 55 0 30 1 55 3 55 2 0 20 -18 42 -40z"/>
<path d="M3549 1857 c-65 -43 -88 -131 -49 -194 70 -115 240 -58 242 80 2 108
-106 172 -193 114z m132 -16 c20 -16 24 -28 23 -68 -1 -59 -34 -128 -72 -146
-32 -16 -80 -7 -99 20 -29 38 -7 141 39 190 27 29 77 30 109 4z"/>
<path d="M5303 1857 c-31 -12 -58 -31 -38 -27 24 5 33 -2 43 -37 7 -21 18 -60
27 -86 10 -35 11 -46 2 -40 -7 4 -56 35 -109 70 -54 34 -103 61 -110 59 -50
-15 -54 -19 -24 -25 28 -6 32 -13 62 -111 29 -95 31 -106 16 -117 -20 -16 -5
-16 38 -1 31 10 32 12 13 19 -16 6 -28 30 -47 90 -14 45 -25 84 -23 85 1 2 51
-28 110 -66 59 -39 111 -70 116 -70 5 0 -1 31 -14 68 -52 154 -55 168 -37 186
19 18 18 19 -25 3z"/>
<path d="M3778 1806 c28 -21 28 -29 0 -145 -17 -72 -27 -95 -43 -102 -13 -5
-15 -8 -5 -9 8 0 26 -3 40 -7 21 -5 23 -4 13 8 -9 11 -7 34 10 102 12 48 24
87 27 87 3 0 30 -54 59 -120 30 -66 58 -120 61 -120 3 0 19 52 34 115 15 64
35 122 43 130 11 12 12 15 1 15 -7 0 -24 3 -38 6 -18 4 -21 3 -11 -4 16 -11
11 -67 -12 -142 l-14 -45 -57 118 c-31 64 -62 117 -68 117 -7 0 -24 3 -38 6
l-25 6 23 -16z"/>
<path d="M4949 1760 c-49 -14 -71 -32 -88 -71 -36 -80 7 -176 90 -201 31 -9
43 -8 75 8 75 37 103 116 68 190 -25 53 -96 89 -145 74z m62 -23 c24 -18 46
-67 54 -118 18 -121 -98 -166 -152 -59 -32 62 -31 133 2 165 26 27 70 32 96
12z"/>
<path d="M4100 1628 c-36 -61 -73 -115 -82 -122 -28 -17 -21 -26 20 -26 27 0
33 3 22 10 -13 8 -13 13 1 37 14 25 20 28 68 27 29 -1 54 -3 56 -5 2 -2 6 -21
10 -41 6 -33 5 -38 -11 -39 -23 -2 31 -16 64 -18 21 -1 22 1 8 14 -9 9 -20 35
-26 58 -6 23 -21 78 -32 122 -11 44 -23 83 -27 87 -3 4 -35 -43 -71 -104z m64
6 c4 -19 10 -42 13 -50 4 -10 -3 -14 -25 -14 -59 0 -63 7 -34 56 15 24 30 44
33 44 4 0 10 -16 13 -36z"/>
<path d="M4700 1721 l-65 -6 -2 -35 c-2 -29 -1 -31 6 -10 5 17 16 27 36 31 47
10 85 10 85 -1 0 -5 -29 -59 -65 -120 -36 -60 -68 -115 -70 -122 -4 -11 12
-12 77 -6 46 3 95 7 111 7 25 1 27 4 26 39 0 29 -2 33 -9 17 -13 -34 -32 -43
-90 -45 -30 -1 -58 -1 -62 -1 -4 1 27 58 68 127 41 69 74 127 74 130 0 4 -22
4 -120 -5z"/>
<path d="M4320 1706 c6 -6 10 -61 10 -123 0 -99 -2 -115 -17 -121 -24 -9 42
-21 122 -21 59 -1 61 0 73 31 15 40 10 46 -12 13 -14 -22 -24 -25 -71 -25
l-55 0 0 115 c0 96 3 115 17 123 12 7 5 11 -30 13 -29 3 -43 1 -37 -5z"/>
</g>
</svg>
